<?xml version="1.0" encoding="UTF-8" standalone="no"?>
<svg
   xmlns:dc="http://purl.org/dc/elements/1.1/"
   xmlns:cc="http://creativecommons.org/ns#"
   xmlns:rdf="http://www.w3.org/1999/02/22-rdf-syntax-ns#"
   xmlns:svg="http://www.w3.org/2000/svg"
   xmlns="http://www.w3.org/2000/svg"
   viewBox="0 0 481.16626 639.08624"
   height="639.08624"
   width="481.16626"
   xml:space="preserve"
   version="1.1"
   id="svg2"><metadata
     id="metadata8"><rdf:RDF><cc:Work
         rdf:about=""><dc:format>image/svg+xml</dc:format><dc:type
           rdf:resource="http://purl.org/dc/dcmitype/StillImage" /></cc:Work></rdf:RDF></metadata><defs
     id="defs6"><clipPath
       id="clipPath16"
       clipPathUnits="userSpaceOnUse"><path
         id="path18"
         d="m 0,511.269 384.933,0 L 384.933,0 0,0 0,511.269 Z" /></clipPath></defs><g
     transform="matrix(1.25,0,0,-1.25,0,639.08625)"
     id="g10"><g
       id="g12"><g
         clip-path="url(#clipPath16)"
         id="g14"><g
           transform="translate(77.1991,46.2012)"
           id="g20"><path
             id="path22"
             style="fill:#ff6464;fill-opacity:1;fill-rule:nonzero;stroke:none"
             d="m 0,0 c -23.467,26.667 -46.933,54.4 -61.867,87.468 -14.933,35.199 -19.2,75.732 -11.733,114.133 7.467,38.399 24.533,74.667 49.067,105.599 -2.133,-26.667 7.467,-54.4 25.6,-74.667 -10.667,51.2 6.4,106.667 40.533,147.2 34.133,40.534 81.067,67.202 130.132,85.334 C 147.2,439.467 144,398.935 153.6,364.8 c 9.6,-34.133 29.867,-64 48,-94.933 18.132,-30.932 35.2,-62.932 36.267,-98.133 9.6,18.133 20.267,36.267 26.667,56.534 6.4,20.266 9.6,41.599 4.267,61.866 19.2,-23.467 29.867,-46.933 35.2,-76.8 5.333,-29.866 4.267,-60.8 1.066,-90.667 C 300.801,89.601 292.268,55.468 274.135,27.734 252.802,-5.333 218.668,-28.799 181.335,-41.599 115.2,-53.333 50.133,-43.732 0,0" /></g><g
           transform="translate(158.266,6.7354)"
           id="g24"><path
             id="path26"
             style="fill:#e91717;fill-opacity:1;fill-rule:nonzero;stroke:none"
             d="m 0,0 c 87.466,-34.134 173.866,69.333 125.866,149.333 0,1.067 -1.067,1.067 -1.067,2.133 4.267,-43.733 -6.4,-75.733 -26.667,-93.866 10.667,25.599 3.2,55.466 -9.6,81.066 -12.8,24.533 -30.933,46.934 -44.8,70.4 -13.867,24.534 -24.533,52.267 -18.133,80 -25.6,-19.2 -43.733,-48 -51.2,-78.933 -7.467,-30.933 -3.2,-65.067 10.667,-93.866 -16,11.732 -27.733,30.932 -28.8,51.199 -17.067,-20.267 -27.733,-46.933 -26.667,-73.6 C -70.4,52.267 -37.334,14.934 0,0" /></g></g></g></g></svg>