<?xml version="1.0" encoding="UTF-8" standalone="no"?>
<svg
   xmlns:dc="http://purl.org/dc/elements/1.1/"
   xmlns:cc="http://creativecommons.org/ns#"
   xmlns:rdf="http://www.w3.org/1999/02/22-rdf-syntax-ns#"
   xmlns:svg="http://www.w3.org/2000/svg"
   xmlns="http://www.w3.org/2000/svg"
   viewBox="0 0 83.893623 86.392998"
   height="86.392998"
   width="83.893623"
   xml:space="preserve"
   version="1.1"
   id="svg2"><metadata
     id="metadata8"><rdf:RDF><cc:Work
         rdf:about=""><dc:format>image/svg+xml</dc:format><dc:type
           rdf:resource="http://purl.org/dc/dcmitype/StillImage" /></cc:Work></rdf:RDF></metadata><defs
     id="defs6"><clipPath
       id="clipPath16"
       clipPathUnits="userSpaceOnUse"><path
         id="path18"
         d="m 0,69.114 67.115,0 L 67.115,0 0,0 0,69.114 Z" /></clipPath></defs><g
     transform="matrix(1.25,0,0,-1.25,0,86.393)"
     id="g10"><g
       id="g12"><g
         clip-path="url(#clipPath16)"
         id="g14"><g
           transform="translate(33.5574,69.1143)"
           id="g20"><path
             id="path22"
             style="fill:#b4b4b4;fill-opacity:1;fill-rule:nonzero;stroke:none"
             d="m 0,0 c -10.663,0 -19.308,-8.644 -19.308,-19.307 0,-10.663 8.645,-19.307 19.308,-19.307 10.663,0 19.308,8.644 19.308,19.307 C 19.308,-8.644 10.663,0 0,0 m 0,-4 c 8.44,0 15.308,-6.866 15.308,-15.307 0,-8.44 -6.868,-15.307 -15.308,-15.307 -8.44,0 -15.308,6.867 -15.308,15.307 C -15.308,-10.866 -8.44,-4 0,-4" /></g><g
           transform="translate(4.1297,0)"
           id="g24"><path
             id="path26"
             style="fill:#b4b4b4;fill-opacity:1;fill-rule:nonzero;stroke:none"
             d="m 0,0 c 3.523,12.948 15.378,22.5 29.428,22.5 14.05,0 25.904,-9.552 29.427,-22.5 l 4.13,0 C 59.376,15.194 45.727,26.5 29.428,26.5 13.129,26.5 -0.521,15.194 -4.13,0 L 0,0 Z" /></g></g></g></g></svg>