<?xml version="1.0" encoding="utf-8"?>
<!-- Generator: Adobe Illustrator 22.0.1, SVG Export Plug-In . SVG Version: 6.00 Build 0)  -->
<svg version="1.1" id="Слой_1" xmlns="http://www.w3.org/2000/svg" xmlns:xlink="http://www.w3.org/1999/xlink" x="0px" y="0px"
	 viewBox="0 0 93 84" style="enable-background:new 0 0 93 84;" xml:space="preserve">
<style type="text/css">
	.st0{fill:#B4B4B4;}
</style>
<path class="st0" d="M46.5,11.9c8.4,0,15.3,6.9,15.3,15.3s-6.9,15.3-15.3,15.3s-15.3-6.9-15.3-15.3S38.1,11.9,46.5,11.9 M46.5,7.9
	c-10.7,0-19.3,8.6-19.3,19.3s8.6,19.3,19.3,19.3c10.7,0,19.3-8.6,19.3-19.3S57.2,7.9,46.5,7.9L46.5,7.9z"/>
<path class="st0" d="M17.1,77c3.5-12.9,15.4-22.5,29.4-22.5S72.4,64.1,75.9,77h4.1c-3.6-15.2-17.3-26.5-33.6-26.5S16.6,61.8,12.9,77
	H17.1z"/>
</svg>
