<?xml version="1.0" encoding="utf-8"?>
<!-- Generator: Adobe Illustrator 22.0.1, SVG Export Plug-In . SVG Version: 6.00 Build 0)  -->
<svg version="1.1" id="Слой_1" xmlns="http://www.w3.org/2000/svg" xmlns:xlink="http://www.w3.org/1999/xlink" x="0px" y="0px"
	 viewBox="0 0 85.5 63.1" style="enable-background:new 0 0 85.5 63.1;" xml:space="preserve">
<style type="text/css">
	.st0{fill:#FFFFFF;}
</style>
<path class="st0" d="M42,2c13.8,0,27.7,1.4,41.2,4.1L70.5,60.7c-9.4-1.8-19-2.7-28.6-2.7c-4.5,0-9,0.2-13.5,0.6
	c-5.1,0.5-10.2,1.2-15.3,2.1L2.3,5.8c6.9-1.3,14-2.3,21.1-2.9C29.6,2.3,35.8,2,42,2 M42,0c-6.2,0-12.4,0.3-18.7,0.8
	C15.4,1.5,7.6,2.6,0,4.2l11.5,58.9c5.6-1.1,11.2-2,17-2.5C33,60.2,37.5,60,41.9,60c10.3,0,20.3,1.1,30.1,3.1L85.5,4.6
	C71.4,1.6,56.9,0,42,0L42,0z"/>
</svg>
