<?xml version="1.0" encoding="utf-8"?>
<!-- Generator: Adobe Illustrator 22.0.1, SVG Export Plug-In . SVG Version: 6.00 Build 0)  -->
<svg version="1.1" id="Слой_1" xmlns="http://www.w3.org/2000/svg" xmlns:xlink="http://www.w3.org/1999/xlink" x="0px" y="0px"
	 viewBox="0 0 118.3 43.4" style="enable-background:new 0 0 118.3 43.4;" xml:space="preserve">
<style type="text/css">
	.st0{fill:#FFFFFF;}
	.st1{fill:#FF7900;}
	.st2{fill:#FFD833;}
	.st3{fill:#FFAC33;}
</style>
<path class="st0" d="M33,42.4V19.7h6.7v19h9.3v3.7H33z"/>
<path class="st0" d="M70.5,42.4l-2.1-5.7H59l-2.1,5.7h-6.7l8.9-22.8h9.1l9,22.8H70.5z M67.1,32.9l-1.9-5.3c-0.1-0.3-0.4-1.1-0.8-2.4
	c-0.4-1.3-0.6-2.1-0.7-2.6c-0.2,0.9-0.5,1.9-0.8,2.9s-1.2,3.5-2.6,7.3H67.1z"/>
<path class="st0" d="M97.8,42.4H78.3v-2.9l11.5-16H78.6v-3.7h18.8v2.9l-11.5,16h11.9V42.4z"/>
<path class="st0" d="M118.3,42.4h-16.3V19.7h16.3v3.6h-9.6v5.4h8.9v3.7h-8.9v6.3h9.6V42.4z"/>
<path class="st1" d="M4.1,13.1L15.8,13c4.8,0,8.4,0.6,10.6,1.8c2.2,1.2,3.3,3.1,3.3,5.7c0,1.7-0.6,3.1-1.8,4.3
	c-1.2,1.1-2.8,1.8-4.8,2.1V27c2.6,0.4,4.5,1.2,5.7,2.3c1.2,1.1,1.8,2.7,1.8,4.5c0,2.7-1.1,4.8-3.4,6.3c-2.3,1.5-5.4,2.3-9.3,2.3h-14
	L4.1,13.1z M12.1,24.8h4c1.8,0,3.1-0.3,3.9-0.9c0.7-0.6,1.1-1.5,1.1-2.8s-0.4-2.1-1.3-2.6c-0.9-0.5-2.2-0.8-4-0.8h-3.7V24.8z
	 M12.1,29.4v8.2h4.4c1.8,0,3.2-0.3,4-1c0.9-0.7,1.3-1.8,1.3-3.2c0-2.6-1.8-3.9-5.5-3.9H12.1z"/>
<path class="st2" d="M0,0c0,0,0.9,6.4,6,9.5c4.5,2.8,5.9,6.4,6.2,8.2c0.1,0.4-0.1,2.7-0.1,2.7s-4.5-6-6.3-2.9s2.4,9.9,2.4,9.9
	s3.5,5.4,3.9,8c0.2,1.1,0.1,1.9,0,2.2c0,0-3.8-4.6-5.5-5.8C4.9,30.6,4.1,30,4,29.4c0,0-0.2,2.2,2.2,4.5s4.9,6.4,6.1,7.1
	c2.3,1.5,5,1.3,5.8,1.3c0,0-7.5,2.2-12.7,0c0,0,3.4-1.8-0.2-5.6c-4-4.1-5.2-10.8-5-12.3c0,0-0.2-3.7,1.6-6.5c0,0-3.2-6.4,0.7-7.3
	c0,0-1,1.1,0,2.1S6,12.7,4,10.3C1.2,7.5-0.1,6.8,0,0z"/>
<path class="st3" d="M5,13.8c-1.7,0.9-3.9-0.9-2.6-2.9c-0.2,0.4-0.6,1.2,0.1,1.8C3.4,13.6,6,12.6,4,10.2c-2.8-2.7-4.1-3.4-4-10
	c0,0,0.4,2.5,1.9,5.1c0,0,0,0,0,0c0.4,0.6,0.8,1.2,1.3,1.8c1.1,1.5,2.4,3.4,2.7,3.9C6.4,11.9,6.2,13.2,5,13.8z"/>
<path class="st3" d="M12.2,37.6c0,0-4-4.6-5.6-5.7c-1.7-1.2-5.7-3.9-6-9.3c0,0-0.4-1.4,1.2-4.2C1,20,1.8,25,4.9,27.5
	C8.9,30.6,12.2,37.6,12.2,37.6z"/>
<path class="st3" d="M7.7,43c-0.8-0.1-1.6-0.3-2.3-0.6c0,0,3.4-1.7-0.2-5.4c-0.5-0.5-0.9-1.1-1.3-1.6C4.3,35.5,11.1,39.6,7.7,43z"/>
</svg>
